<svg width="87" height="34" viewBox="0 0 87 34" fill="none" xmlns="http://www.w3.org/2000/svg">
<g id="logo">
<path d="M14.9119 10.1173C17.5394 10.1173 19.6252 10.9977 21.1692 12.7584C22.7132 14.492 23.4852 16.8487 23.4852 19.8284V33.115H15.5214V20.8848C15.5214 19.5846 15.1828 18.5688 14.5056 17.8374C13.8284 17.0789 12.9209 16.6997 11.7832 16.6997C10.5914 16.6997 9.65684 17.0789 8.97964 17.8374C8.30245 18.5688 7.96385 19.5846 7.96385 20.8848V33.115H0V10.3205H7.96385V13.571C8.66813 12.5417 9.61621 11.7155 10.8081 11.0925C11.9999 10.4424 13.3679 10.1173 14.9119 10.1173Z" fill="black"/>
<path d="M31.8776 8.20764C30.469 8.20764 29.3313 7.82841 28.4645 7.06995C27.6248 6.2844 27.2049 5.30923 27.2049 4.14445C27.2049 2.95258 27.6248 1.96388 28.4645 1.17833C29.3313 0.392776 30.469 0 31.8776 0C33.2591 0 34.3697 0.392776 35.2094 1.17833C36.0762 1.96388 36.5096 2.95258 36.5096 4.14445C36.5096 5.30923 36.0762 6.2844 35.2094 7.06995C34.3697 7.82841 33.2591 8.20764 31.8776 8.20764ZM35.8189 10.3205V33.115H27.8551V10.3205H35.8189Z" fill="black"/>
<path d="M39.0539 21.6974C39.0539 19.3408 39.5415 17.2821 40.5166 15.5214C41.4918 13.7607 42.8462 12.4063 44.5798 11.4582C46.3405 10.5101 48.345 10.0361 50.5933 10.0361C53.4918 10.0361 55.9297 10.8352 57.9071 12.4334C59.8845 14.0045 61.1576 16.2121 61.7265 19.0563H53.275C52.7875 17.5665 51.8394 16.8216 50.4308 16.8216C49.4286 16.8216 48.6295 17.2415 48.0335 18.0812C47.4647 18.8938 47.1803 20.0992 47.1803 21.6974C47.1803 23.2956 47.4647 24.5146 48.0335 25.3543C48.6295 26.194 49.4286 26.6139 50.4308 26.6139C51.8665 26.6139 52.8146 25.869 53.275 24.3791H61.7265C61.1576 27.1963 59.8845 29.4039 57.9071 31.0021C55.9297 32.6003 53.4918 33.3994 50.5933 33.3994C48.345 33.3994 46.3405 32.9254 44.5798 31.9773C42.8462 31.0292 41.4918 29.6748 40.5166 27.9141C39.5415 26.1534 39.0539 24.0812 39.0539 21.6974Z" fill="black"/>
<path d="M86.8135 21.4536C86.8135 22.0767 86.7729 22.6997 86.6916 23.3227H71.6172C71.6984 24.5687 72.037 25.5033 72.633 26.1263C73.256 26.7222 74.0415 27.0202 74.9896 27.0202C76.3169 27.0202 77.265 26.4243 77.8338 25.2324H86.3259C85.9738 26.8035 85.283 28.2121 84.2537 29.4581C83.2514 30.6771 81.9783 31.6387 80.4343 32.343C78.8903 33.0473 77.1837 33.3994 75.3147 33.3994C73.0664 33.3994 71.0619 32.9254 69.3011 31.9773C67.5675 31.0292 66.1996 29.6748 65.1973 27.9141C64.2222 26.1534 63.7346 24.0812 63.7346 21.6974C63.7346 19.3137 64.2222 17.255 65.1973 15.5214C66.1725 13.7607 67.5269 12.4063 69.2605 11.4582C71.0212 10.5101 73.0393 10.0361 75.3147 10.0361C77.563 10.0361 79.5539 10.4966 81.2876 11.4176C83.0212 12.3385 84.3756 13.6659 85.3507 15.3995C86.3259 17.106 86.8135 19.1241 86.8135 21.4536ZM78.6871 19.4627C78.6871 18.4875 78.3621 17.729 77.7119 17.1873C77.0618 16.6184 76.2492 16.334 75.274 16.334C74.2989 16.334 73.4998 16.6049 72.8767 17.1467C72.2537 17.6613 71.8474 18.4333 71.6578 19.4627H78.6871Z" fill="black"/>
</g>
</svg>
