<svg width="87" height="35" viewBox="0 0 87 35" fill="none" xmlns="http://www.w3.org/2000/svg">
<g id="logo">
<path d="M14.9119 11.0023C17.5394 11.0023 19.6252 11.8827 21.1692 13.6434C22.7132 15.377 23.4852 17.7337 23.4852 20.7134V34H15.5214V21.7698C15.5214 20.4696 15.1828 19.4538 14.5056 18.7224C13.8284 17.9639 12.9209 17.5847 11.7832 17.5847C10.5914 17.5847 9.65684 17.9639 8.97964 18.7224C8.30245 19.4538 7.96385 20.4696 7.96385 21.7698V34H0V11.2055H7.96385V14.4561C8.66813 13.4267 9.61621 12.6005 10.8081 11.9775C11.9999 11.3274 13.3679 11.0023 14.9119 11.0023Z" fill="white"/>
<path d="M31.8776 9.09265C30.469 9.09265 29.3313 8.71342 28.4645 7.95496C27.6248 7.16941 27.2049 6.19424 27.2049 5.02946C27.2049 3.83759 27.6248 2.84889 28.4645 2.06334C29.3313 1.27779 30.469 0.88501 31.8776 0.88501C33.2591 0.88501 34.3697 1.27779 35.2094 2.06334C36.0762 2.84889 36.5096 3.83759 36.5096 5.02946C36.5096 6.19424 36.0762 7.16941 35.2094 7.95496C34.3697 8.71342 33.2591 9.09265 31.8776 9.09265ZM35.8189 11.2055V34H27.8551V11.2055H35.8189Z" fill="white"/>
<path d="M39.0539 22.5824C39.0539 20.2258 39.5415 18.1671 40.5166 16.4064C41.4918 14.6457 42.8462 13.2913 44.5798 12.3432C46.3405 11.3951 48.345 10.9211 50.5933 10.9211C53.4918 10.9211 55.9297 11.7202 57.9071 13.3184C59.8845 14.8895 61.1576 17.0971 61.7265 19.9414H53.275C52.7875 18.4515 51.8394 17.7066 50.4308 17.7066C49.4286 17.7066 48.6295 18.1265 48.0335 18.9662C47.4647 19.7788 47.1803 20.9842 47.1803 22.5824C47.1803 24.1806 47.4647 25.3996 48.0335 26.2393C48.6295 27.079 49.4286 27.4989 50.4308 27.4989C51.8665 27.4989 52.8146 26.754 53.275 25.2641H61.7265C61.1576 28.0813 59.8845 30.2889 57.9071 31.8871C55.9297 33.4853 53.4918 34.2844 50.5933 34.2844C48.345 34.2844 46.3405 33.8104 44.5798 32.8623C42.8462 31.9142 41.4918 30.5598 40.5166 28.7991C39.5415 27.0384 39.0539 24.9662 39.0539 22.5824Z" fill="white"/>
<path d="M86.8135 22.3386C86.8135 22.9617 86.7729 23.5847 86.6916 24.2077H71.6172C71.6984 25.4537 72.037 26.3883 72.633 27.0113C73.256 27.6072 74.0415 27.9052 74.9896 27.9052C76.3169 27.9052 77.265 27.3093 77.8338 26.1174H86.3259C85.9738 27.6885 85.283 29.0971 84.2537 30.3431C83.2514 31.5621 81.9783 32.5237 80.4343 33.228C78.8903 33.9323 77.1837 34.2844 75.3147 34.2844C73.0664 34.2844 71.0619 33.8104 69.3011 32.8623C67.5675 31.9142 66.1996 30.5598 65.1973 28.7991C64.2222 27.0384 63.7346 24.9662 63.7346 22.5824C63.7346 20.1987 64.2222 18.14 65.1973 16.4064C66.1725 14.6457 67.5269 13.2913 69.2605 12.3432C71.0212 11.3951 73.0393 10.9211 75.3147 10.9211C77.563 10.9211 79.5539 11.3816 81.2876 12.3026C83.0212 13.2236 84.3756 14.5509 85.3507 16.2845C86.3259 17.991 86.8135 20.0091 86.8135 22.3386ZM78.6871 20.3477C78.6871 19.3725 78.3621 18.6141 77.7119 18.0723C77.0618 17.5034 76.2492 17.219 75.274 17.219C74.2989 17.219 73.4998 17.4899 72.8767 18.0317C72.2537 18.5463 71.8474 19.3183 71.6578 20.3477H78.6871Z" fill="white"/>
</g>
</svg>
